<svg xmlns="http://www.w3.org/2000/svg" xmlns:xlink="http://www.w3.org/1999/xlink" viewBox="0 0 204.94 43.57"><defs><style>.cls-1{fill:#009e9e;}.cls-2{fill:url(#Degradado_sin_nombre_22);}.cls-3{fill:url(#Degradado_sin_nombre_33);}.cls-4{fill:url(#Degradado_sin_nombre_33-2);}</style><linearGradient id="Degradado_sin_nombre_22" x1="44.58" y1="12.68" x2="-1.71" y2="42.6" gradientUnits="userSpaceOnUse"><stop offset="0" stop-color="#00ffd0"/><stop offset="0.32" stop-color="#3cff91"/><stop offset="1" stop-color="#c8ff00"/></linearGradient><linearGradient id="Degradado_sin_nombre_33" x1="41.74" y1="8.28" x2="-4.56" y2="38.19" gradientUnits="userSpaceOnUse"><stop offset="0" stop-color="aqua"/><stop offset="0.26" stop-color="#32ffc0"/><stop offset="0.87" stop-color="#afff24"/><stop offset="1" stop-color="#cf0"/></linearGradient><linearGradient id="Degradado_sin_nombre_33-2" x1="47.17" y1="16.68" x2="0.87" y2="46.59" xlink:href="#Degradado_sin_nombre_33"/></defs><g id="Capa_2" data-name="Capa 2"><g id="Capa_1-2" data-name="Capa 1"><path class="cls-1" d="M15.48,4.75,1.29,29.33A9.48,9.48,0,0,0,9.51,43.57H37.9a9.49,9.49,0,0,0,8.22-14.24L31.93,4.75a9.5,9.5,0,0,0-16.45,0Z"/><path class="cls-2" d="M43.27,29.89,29.87,6.69A7,7,0,0,0,23.7,3.12h0a7.06,7.06,0,0,0-6.17,3.56L4.14,29.89a7.12,7.12,0,0,0,6.17,10.68H16.7a2.25,2.25,0,1,0,0-4.49H10.31A2.63,2.63,0,0,1,8,32.14L21.43,8.93a2.63,2.63,0,0,1,4.55,0L39.37,32.14a2.63,2.63,0,0,1-2.27,3.94H30.63a2.25,2.25,0,1,0,0,4.49H37.1a7.12,7.12,0,0,0,6.17-10.68Z"/><path class="cls-3" d="M26,19.91a2.27,2.27,0,1,0-4.54,0,2.27,2.27,0,1,0,4.54,0Z"/><path class="cls-4" d="M25.25,23.48q-1.5,0-3,0a1.83,1.83,0,0,0-2,2c0,2.11,0,4.22,0,6.33a1.72,1.72,0,0,0,.65,1.34,1.58,1.58,0,0,1,.53,1.38c0,1.34,0,3.64,0,5a1,1,0,0,0,1,1,1,1,0,0,0,1-1v-6.1a.2.2,0,1,1,.4,0v6.09a1,1,0,0,0,2.09,0c0-1.34,0-3.52,0-4.81A2,2,0,0,1,26.69,33a1.07,1.07,0,0,0,.42-.68c0-2.34,0-4.68,0-7A1.78,1.78,0,0,0,25.25,23.48Z"/><path class="cls-1" d="M68.83,12.32a3,3,0,0,0-.85-1.1,2.23,2.23,0,0,0-1.44-.48h-.29a2.23,2.23,0,0,0-1.44.48A3,3,0,0,0,64,12.33L56.48,30a2.21,2.21,0,0,0-.2.83,1.94,1.94,0,0,0,.55,1.38,1.89,1.89,0,0,0,1.41.58,2,2,0,0,0,1.1-.33,2.06,2.06,0,0,0,.75-.89l1.74-4.18H71l1.75,4.21a2,2,0,0,0,.75.86,2,2,0,0,0,2.5-.25,1.94,1.94,0,0,0,.55-1.38,2.07,2.07,0,0,0-.2-.83Zm.57,11.36h-6l3-7.24Z"/><path class="cls-1" d="M90.34,17.12a7.52,7.52,0,0,0-3.76-1,7.19,7.19,0,0,0-4.47,1.52,1.87,1.87,0,0,0-.5-.81,2,2,0,0,0-2.79,0,1.92,1.92,0,0,0-.56,1.39V37.55a2,2,0,0,0,.56,1.39,1.87,1.87,0,0,0,1.39.59A2,2,0,0,0,81.63,39a2,2,0,0,0,.57-1.42V31.48a7.16,7.16,0,0,0,4.38,1.45,7.51,7.51,0,0,0,3.76-1A7.68,7.68,0,0,0,93.22,29a8.89,8.89,0,0,0,1.1-4.47,8.83,8.83,0,0,0-1.1-4.46A7.68,7.68,0,0,0,90.34,17.12ZM82.2,21.7A6.5,6.5,0,0,1,84,20.41a5,5,0,0,1,2.25-.53,4,4,0,0,1,3,1.18,4.83,4.83,0,0,1,1.14,3.46A4.81,4.81,0,0,1,89.23,28h0a4,4,0,0,1-3,1.19A4.85,4.85,0,0,1,84,28.63a6.26,6.26,0,0,1-1.75-1.28Z"/><path class="cls-1" d="M108.27,17.12a7.56,7.56,0,0,0-3.77-1A7.16,7.16,0,0,0,100,17.63a2,2,0,0,0-.51-.81,2,2,0,0,0-1.39-.56,1.95,1.95,0,0,0-2,2V37.55a2,2,0,0,0,.56,1.39,1.89,1.89,0,0,0,1.4.59,1.92,1.92,0,0,0,2-2V31.48a7.16,7.16,0,0,0,4.38,1.45A7.53,7.53,0,0,0,111.14,29a8.89,8.89,0,0,0,1.1-4.47,8.83,8.83,0,0,0-1.1-4.46A7.59,7.59,0,0,0,108.27,17.12Zm-8.15,4.58a6.83,6.83,0,0,1,1.75-1.29,5,5,0,0,1,2.25-.53,4,4,0,0,1,3,1.18,4.83,4.83,0,0,1,1.15,3.46A4.81,4.81,0,0,1,107.15,28h0a4,4,0,0,1-3,1.19,4.88,4.88,0,0,1-2.25-.54,6.41,6.41,0,0,1-1.75-1.28Z"/><path class="cls-1" d="M124.09,18.07a2,2,0,0,0-.54-1.38,1.88,1.88,0,0,0-1.39-.58H122a5.73,5.73,0,0,0-4,1.75,2,2,0,0,0-.54-1,2,2,0,0,0-1.41-.58,1.87,1.87,0,0,0-1.39.59,2,2,0,0,0-.56,1.4V30.83a1.92,1.92,0,0,0,.56,1.39,2,2,0,0,0,1.39.57,2,2,0,0,0,1.4-.56,1.93,1.93,0,0,0,.59-1.4V22.11a5.25,5.25,0,0,1,1.65-1.54A4.39,4.39,0,0,1,122,20h.15a2,2,0,0,0,1.4-.52A1.84,1.84,0,0,0,124.09,18.07Z"/><path class="cls-1" d="M138.13,25.52a2,2,0,0,0,.54-1.38,9.08,9.08,0,0,0-.88-4,7.26,7.26,0,0,0-2.64-3,7.53,7.53,0,0,0-4.1-1.11,7.44,7.44,0,0,0-4.26,1.2,7.25,7.25,0,0,0-2.57,3.12,10.19,10.19,0,0,0-.81,4.09,8.46,8.46,0,0,0,2.19,6.19h0a8.16,8.16,0,0,0,6,2.22,11.31,11.31,0,0,0,3.05-.34,11.5,11.5,0,0,0,2.4-1,1.86,1.86,0,0,0,1.08-1.64,1.7,1.7,0,0,0-.56-1.29,1.82,1.82,0,0,0-1.25-.49,1.85,1.85,0,0,0-.81.18,7.6,7.6,0,0,1-1.68.63,8.28,8.28,0,0,1-2,.22,4.65,4.65,0,0,1-3.19-1,3.83,3.83,0,0,1-1.19-2.08h9.19A1.94,1.94,0,0,0,138.13,25.52Zm-10.67-2.87a3.77,3.77,0,0,1,.54-1.41,3.31,3.31,0,0,1,1.36-1.2,3.88,3.88,0,0,1,3.39,0,3.47,3.47,0,0,1,1.37,1.2,3.69,3.69,0,0,1,.56,1.41Z"/><path class="cls-1" d="M152,16.26a2,2,0,0,0-1.07.32,2,2,0,0,0-.71.82v0l-3.9,9.88-3.9-9.88v0a2,2,0,0,0-.72-.81,1.94,1.94,0,0,0-1.06-.32,1.89,1.89,0,0,0-1.4.59,2,2,0,0,0-.56,1.4,2.31,2.31,0,0,0,.2.86l5.11,12.21a2.41,2.41,0,0,0,.86,1,2.22,2.22,0,0,0,1.33.43h.3a2.22,2.22,0,0,0,1.33-.43,2.47,2.47,0,0,0,.87-1.05l5.1-12.2a2.31,2.31,0,0,0,.2-.86,2,2,0,0,0-.56-1.4A1.89,1.89,0,0,0,152,16.26Z"/><path class="cls-1" d="M168.76,25.52a2,2,0,0,0,.54-1.38,9,9,0,0,0-.89-4,7.16,7.16,0,0,0-2.63-3,7.55,7.55,0,0,0-4.1-1.11,7.42,7.42,0,0,0-4.26,1.2,7.18,7.18,0,0,0-2.57,3.12,10.2,10.2,0,0,0-.82,4.09,8.47,8.47,0,0,0,2.2,6.19h0a8.15,8.15,0,0,0,6,2.22,11.36,11.36,0,0,0,3-.34,11.73,11.73,0,0,0,2.4-1,1.88,1.88,0,0,0,1.08-1.64,1.7,1.7,0,0,0-.56-1.29,1.87,1.87,0,0,0-2.06-.31,7.79,7.79,0,0,1-1.68.63,8.31,8.31,0,0,1-2,.22,4.62,4.62,0,0,1-3.18-1,3.84,3.84,0,0,1-1.2-2.08h9.19A2,2,0,0,0,168.76,25.52Zm-10.67-2.87a3.77,3.77,0,0,1,.54-1.41A3.25,3.25,0,0,1,160,20a3.88,3.88,0,0,1,3.39,0,3.47,3.47,0,0,1,1.37,1.2,3.86,3.86,0,0,1,.56,1.41Z"/><path class="cls-1" d="M182.87,17a5.66,5.66,0,0,0-3.15-.87,6.72,6.72,0,0,0-3.36.82,10.11,10.11,0,0,0-1.48,1,1.91,1.91,0,0,0-.56-1.12,2,2,0,0,0-1.4-.58,1.87,1.87,0,0,0-1.4.59,2,2,0,0,0-.56,1.4V30.83a1.95,1.95,0,0,0,2,2,2,2,0,0,0,1.39-.56,1.89,1.89,0,0,0,.59-1.4V22.26a8.54,8.54,0,0,1,1.9-1.75,4,4,0,0,1,2.28-.66c1.79,0,2.59.91,2.59,2.94v8a1.89,1.89,0,0,0,.57,1.39,1.92,1.92,0,0,0,1.38.57,2,2,0,0,0,1.4-.56,1.89,1.89,0,0,0,.59-1.4V22.5a7.29,7.29,0,0,0-.69-3.18A5.61,5.61,0,0,0,182.87,17Z"/><path class="cls-1" d="M190.31,10.25h-.17A2.13,2.13,0,0,0,188,12.38v.12a2.09,2.09,0,0,0,.63,1.5h0a2.09,2.09,0,0,0,1.51.63h.17a2.15,2.15,0,0,0,2.14-2.13v-.12a2.13,2.13,0,0,0-2.14-2.13Z"/><path class="cls-1" d="M190.2,16.26a1.87,1.87,0,0,0-1.4.59,2,2,0,0,0-.56,1.4V30.83a1.95,1.95,0,0,0,2,2,2,2,0,0,0,1.39-.56,1.89,1.89,0,0,0,.59-1.4V18.25a1.92,1.92,0,0,0-.57-1.42A2,2,0,0,0,190.2,16.26Z"/><path class="cls-1" d="M204.4,16.69a1.87,1.87,0,0,0-1.38-.58h-.15a5.73,5.73,0,0,0-4,1.75,2,2,0,0,0-.54-1,2,2,0,0,0-1.41-.58,1.87,1.87,0,0,0-1.39.59,2,2,0,0,0-.56,1.4V30.83a1.92,1.92,0,0,0,.56,1.39,2,2,0,0,0,1.39.57,2,2,0,0,0,1.4-.56,1.89,1.89,0,0,0,.59-1.4V22.11a5.25,5.25,0,0,1,1.65-1.54,4.3,4.3,0,0,1,2.26-.6H203a2,2,0,0,0,1.4-.52,1.84,1.84,0,0,0,.58-1.38A2,2,0,0,0,204.4,16.69Z"/></g></g></svg>