<svg id="Capa_1" data-name="Capa 1" xmlns="http://www.w3.org/2000/svg" viewBox="0 0 668.23 1051.96"><defs><style>.cls-1{fill:#263238;}.cls-2{fill:#b78876;}.cls-3{fill:#995037;}.cls-4{fill:#2b4751;}.cls-5{fill:#707070;}.cls-6{fill:#455a64;}.cls-7{fill:#fff;}</style></defs><path class="cls-1" d="M500.74,187.19c23.2-32.94-7.38-78.32-27.68-93.66-4.12-9.37-8-23.13-16.25-25.3-12.19-5.72-27.18-4.1-38.25,3.8-5.21-18.71-29.48-24-44.32-13.18a3.22,3.22,0,0,1-4.56-.07c-9.83-15.48-37.44-11.73-36.05,8.9-13.57-11.35-35.23,1.71-31.71,18.95-27-8.32-31.48,25.82-15.7,40.71,5.45,4.83,10.12,1.77,17.24,3.22,10.61,2.35,21.82,4.61,32.23,1.29" transform="translate(-65.67 -49.27)"/><path class="cls-2" d="M267.82,194.34C272.71,129.91,328.6,81.25,393,84.15c66.78,3.77,100.88,62.56,95.27,129.21L476.35,521.19h-153L324.67,421C233,409.27,263.16,289.16,267.82,194.34Z" transform="translate(-65.67 -49.27)"/><path class="cls-3" d="M324.06,420.92a155.61,155.61,0,0,0,84-24.78s-19.69,46.21-83.8,40.57Z" transform="translate(-65.67 -49.27)"/><path class="cls-1" d="M292.63,245c-.37,11.34,17.81,12.48,18.31.94C311.31,234.64,293.17,233.52,292.63,245Z" transform="translate(-65.67 -49.27)"/><path class="cls-1" d="M281.68,225.7c1.16,1.2,8.09-4,17.95-3.93s17.08,4.9,18.14,3.71C313.67,213.09,285.39,212.88,281.68,225.7Z" transform="translate(-65.67 -49.27)"/><path class="cls-1" d="M387.62,249.42c-.41,11.36,17.76,12.52,18.3,1C406.24,239.1,388.17,237.9,387.62,249.42Z" transform="translate(-65.67 -49.27)"/><path class="cls-1" d="M378.72,230.63c1.16,1.2,8.09-4,17.95-4s17.08,4.93,18.15,3.74C410.74,218,382.45,217.85,378.72,230.63Z" transform="translate(-65.67 -49.27)"/><path class="cls-1" d="M343,300.54c-30-6.28-23.68,1-12.38-32,24.13-63.87,20-65.34-4-1.45C316.64,294.7,308.52,303.48,343,300.54Z" transform="translate(-65.67 -49.27)"/><path class="cls-1" d="M373.22,308.76c-1.6-.16-2.61,10.4-12.44,17.14s-21,4.46-21.29,6c4.19,5.11,19.24,3.09,24.84-1.51C370.46,327.14,377.32,313.85,373.22,308.76Z" transform="translate(-65.67 -49.27)"/><path class="cls-1" d="M373.66,208.3c.94,2.67,10.8,1.51,22.37,3s20.85,4.77,22.56,2.38C415.84,200.23,379.55,196.07,373.66,208.3Z" transform="translate(-65.67 -49.27)"/><path class="cls-1" d="M279.29,197.21c1.87,2.45,10.38,1,20.34,1.87s18.24,3.22,20.4,1.23c1.11-6.7-13.77-11-19.72-11.22C294.45,188.36,279.06,190.45,279.29,197.21Z" transform="translate(-65.67 -49.27)"/><path class="cls-2" d="M478.63,260.87c63.25-18.58,52.06,83-2.29,63C476.35,322.59,478.63,260.87,478.63,260.87Z" transform="translate(-65.67 -49.27)"/><path class="cls-3" d="M486.3,307.63c9,6.25,16.3-4.36,17-15.21,1-6.18-4.13-22.89-12-15.09-1.46,6.49-3.18-5.26,4.93-4.09,15.6,4.69,11.67,34.63-1.64,37.94C492.05,312.22,486.18,310.35,486.3,307.63Z" transform="translate(-65.67 -49.27)"/><path class="cls-1" d="M449.88,130.46l-21.69-18.72-69,10.57-48.34-12.47-29,4.41c2.38,3.22,2.85,3.13,3.58,1.3,16.19-30,64.64-40.56,91.27-41.94,36.61,1.42,126.19,49.54,129.34,87.08,2.77,23.73-10.51,50.67-15.79,74-2.71,12-8,48.35-8,48.35h0c-10.06,0-13.83-8.06-12.28-18l1.87-39.09C422.15,183.23,474.57,147.22,449.88,130.46Z" transform="translate(-65.67 -49.27)"/><path class="cls-1" d="M458.81,140.91c-3.87-12.51-17.53-20.31-30.62-20.15-26.95-1.1-38.6,29.12-52.43,23.14-1.53-1.18-3.55-1.43-4.48.52-4.45,7.62-15.23,15.36-23,7.67-10.21,10-28.62,1.82-28.14-12.41-32.43,2.1-36.47-59.83,13.06-62.1,16.41-1.64,33.65-4.85,49.89-.85,6.67,2.42,12.21,7.87,19.34,8.74,11.19.4,21.32-6.27,32.68-5,21.05,3.23,39.07,23.49,45.41,43.38,5.88,24.44-25,35.55-22.43,16.6" transform="translate(-65.67 -49.27)"/><path class="cls-4" d="M478.6,460.34l178.23,88.6-73.51,420,8.37,95.31-414.41.86,19.09-319.87L133.32,557.67l190.77-99.59C378.33,522.28,430.29,509.3,478.6,460.34Z" transform="translate(-65.67 -49.27)"/><path class="cls-5" d="M295.18,819.74c2-54.62,2.41-94.82,4.25-166l-1.35.29A525.23,525.23,0,0,0,344.91,735a914.12,914.12,0,0,1,42-93.41h-1.45a327.1,327.1,0,0,1,36.16,97.31c1.12-1.15,56.47-55.8,57.63-57l-1.16-.58c-4.14,46.62-15.3,98.46-28.75,142,15-43.85,26-96.54,30.2-143.88l-1.35,1.32-56.67,55.89,1.33.39a327.28,327.28,0,0,0-36.71-97.63A919.56,919.56,0,0,0,343.94,733l1.42-.2a530.91,530.91,0,0,1-47.31-82.28C296.94,721.63,295.74,764.94,295.18,819.74Z" transform="translate(-65.67 -49.27)"/><path class="cls-5" d="M492.46,649.4c-7.95-3.33-14.8,9.33-7.22,14.18,4.19,3.79,12.22,2,12.86-4.09.85-3.77-5.7-6.69-2.35-3.87,4.67,5.82-5,11.2-9.48,6.64C480,657.68,485.54,648.56,492.46,649.4Z" transform="translate(-65.67 -49.27)"/><path class="cls-1" d="M385.78,613.5c-11.77-1.92-12.24,17-.18,16.34,6.78.28,10.44-9.9,5.27-13.83,5.2,8.48-6,17.44-11.93,8.62C375.8,619.73,380.59,613.89,385.78,613.5Z" transform="translate(-65.67 -49.27)"/><path class="cls-5" d="M291,623.29c7.33.25,10.31,11.65,2,13-8.23,1.73-9.56-10-2.74-12.8-11.54,2.42-4.25,19.91,6,13.24C303.18,632.88,298.16,621.32,291,623.29Z" transform="translate(-65.67 -49.27)"/><path class="cls-5" d="M274.39,828.73c63-1.28,146.22,3.35,208.92,9.83C422.65,829.43,335.64,824.65,274.39,828.73Z" transform="translate(-65.67 -49.27)"/><path class="cls-4" d="M195.94,792.51,65.67,782.43C76,733.08,130.32,360.79,220.05,677.23Z" transform="translate(-65.67 -49.27)"/><path class="cls-4" d="M733.9,835.75C711.45,540.9,621.61,381,572.75,815.71Z" transform="translate(-65.67 -49.27)"/><path class="cls-1" d="M185.6,926.32c6-83.18,12.35-201.1,11.09-284.46C195.92,725.24,189.55,843.06,185.6,926.32Z" transform="translate(-65.67 -49.27)"/><path class="cls-1" d="M595.18,913.24c-1-79.38,4.42-191.66,1.42-271C597.64,721.65,592.16,833.91,595.18,913.24Z" transform="translate(-65.67 -49.27)"/><path class="cls-1" d="M596.53,624c5.86-28.63,25.37-63.24,56.53-72.35C620.49,558.88,600.36,592.66,596.53,624Z" transform="translate(-65.67 -49.27)"/><rect class="cls-6" x="265.8" y="492.54" width="116.29" height="232.35" rx="21.37"/><path class="cls-7" d="M390.45,568.43c-8.57-.12-8.57,13.34,0,13.22C399,581.77,399,568.31,390.45,568.43Z" transform="translate(-65.67 -49.27)"/><path class="cls-2" d="M522.59,677,489,636.24S421.75,622,413.72,624.49c-6.84,2.3-5.9,12.52-5.33,17.26l9,4.71,38.93,2.75,24.13,12.84-16.11-5.47-45.62-1.94c-6.54-.49-16.11,4.39-15.13,11.75,4,10.73,44.48,12.33,54.17,15.48L472,702.33l-42.81-8.19s-24.49,11.27-25.79,14.75c.63,6.87,47.57,16.5,54.16,20.29l-30.23,4.64-32,9.74,14.14,4.9,26,.34,23.17,8.28,1.2,20s11.9,19.4,21.51,23.55,40.76-50,40.76-50L522,726.39l3.61-23.11C520.46,688.81,520.2,692.47,522.59,677Z" transform="translate(-65.67 -49.27)"/><path class="cls-2" d="M477,795l92.47,266.73s19.47,44.75,71.07,39c82.19-17,64.43-207.61,79.54-267.82l-124.18-14-.85,73.82L522,751Z" transform="translate(-65.67 -49.27)"/><path class="cls-3" d="M646.15,1021.93A184.33,184.33,0,0,0,597.51,896C630.86,927.75,649.41,976.06,646.15,1021.93Z" transform="translate(-65.67 -49.27)"/><path class="cls-2" d="M307,774l-87.67,253.06s-19.46,44.75-71.06,39c-82.2-17-64-222-79.15-282.2l123,8.44L193.76,858,265,730Z" transform="translate(-65.67 -49.27)"/><path class="cls-3" d="M142.66,987.26A184.33,184.33,0,0,1,191.3,861.35C157.94,893.08,139.4,941.39,142.66,987.26Z" transform="translate(-65.67 -49.27)"/><path class="cls-3" d="M510.12,671.55c11.67,8.75,5.55,21.59-1.67,27.68-1.65,2.09-5.17,3.67-4.55,6.86,9,15.86-1,15.56-6.48,25.74,1,9.1,1.41,18.85-7.15,23.9-2.76,1.54-6.11,3-.51-.47,12.11-7.8,2.58-19.42,8.31-28,13.49-9.63,5.61-11.53,4.5-23.9C510.19,695.26,523,684.54,510.12,671.55Z" transform="translate(-65.67 -49.27)"/><path class="cls-2" d="M264.48,655.56,298,614.78s67.29-14.21,75.32-11.75c6.84,2.3,5.9,12.52,5.33,17.26l-9,4.7-38.93,2.76-24.14,12.83,16.12-5.46,45.62-1.94c6.53-.49,16.1,4.39,15.13,11.74-4,10.74-44.49,12.33-54.17,15.49l-14.23,20.46,42.82-8.19S382.4,684,383.7,687.43c-.63,6.86-47.57,16.5-54.16,20.28l30.23,4.65,32,9.73L377.62,727l-26,.34-23.17,8.27-1.2,20s-11.9,19.4-21.51,23.54-40.76-50-40.76-50l.12-24.31-3.61-23.11C266.6,667.35,266.87,671,264.48,655.56Z" transform="translate(-65.67 -49.27)"/><path class="cls-3" d="M272.06,671.55c-11.67,8.75-5.55,21.59,1.67,27.68,1.65,2.09,5.17,3.67,4.55,6.86-9,15.86,1,15.56,6.48,25.74-1,9.1-1.41,18.85,7.15,23.9,2.76,1.54,6.11,3,.51-.47-12.11-7.8-2.58-19.42-8.31-28-13.49-9.63-5.61-11.53-4.5-23.9C272,695.26,259.18,684.54,272.06,671.55Z" transform="translate(-65.67 -49.27)"/><path class="cls-3" d="M288.46,654.63c-4.31-16.5,51.67-18.82,61.66-21.31C339.48,632.63,280.58,637.71,288.46,654.63Z" transform="translate(-65.67 -49.27)"/><path class="cls-3" d="M486.19,672.21c3.2-16.75-52.81-15.33-62.95-17.15C433.82,653.66,492.92,654.8,486.19,672.21Z" transform="translate(-65.67 -49.27)"/><path class="cls-3" d="M486.19,716c3.2-16.75-52.81-15.33-62.95-17.15C433.82,697.46,492.92,698.6,486.19,716Z" transform="translate(-65.67 -49.27)"/></svg>