<svg xmlns="http://www.w3.org/2000/svg" xmlns:xlink="http://www.w3.org/1999/xlink" viewBox="0 0 201.77 37.47"><defs><style>.cls-1{fill:url(#Degradado_sin_nombre_22);}.cls-2{fill:url(#Degradado_sin_nombre_33);}.cls-3{fill:url(#Degradado_sin_nombre_33-2);}.cls-4{fill:#fff;}</style><linearGradient id="Degradado_sin_nombre_22" x1="41.41" y1="9.56" x2="-4.88" y2="39.47" gradientUnits="userSpaceOnUse"><stop offset="0" stop-color="#00ffd0"/><stop offset="0.32" stop-color="#3cff91"/><stop offset="1" stop-color="#c8ff00"/></linearGradient><linearGradient id="Degradado_sin_nombre_33" x1="38.57" y1="5.15" x2="-7.73" y2="35.07" gradientUnits="userSpaceOnUse"><stop offset="0" stop-color="aqua"/><stop offset="0.26" stop-color="#32ffc0"/><stop offset="0.87" stop-color="#afff24"/><stop offset="1" stop-color="#cf0"/></linearGradient><linearGradient id="Degradado_sin_nombre_33-2" x1="44" y1="13.56" x2="-2.3" y2="43.47" xlink:href="#Degradado_sin_nombre_33"/></defs><g id="Capa_2" data-name="Capa 2"><g id="Capa_1-2" data-name="Capa 1"><path class="cls-1" d="M40.1,26.76,26.7,3.56A7,7,0,0,0,20.53,0h0a7.06,7.06,0,0,0-6.17,3.56L1,26.76A7.13,7.13,0,0,0,7.14,37.45h6.39a2.25,2.25,0,1,0,0-4.5H7.14A2.63,2.63,0,0,1,4.86,29l13.4-23.2a2.63,2.63,0,0,1,4.55,0L36.2,29A2.63,2.63,0,0,1,33.93,33H27.46a2.25,2.25,0,0,0,0,4.5h6.47A7.13,7.13,0,0,0,40.1,26.76Z"/><path class="cls-2" d="M22.8,16.79a2.27,2.27,0,1,0-2.26,2.3A2.27,2.27,0,0,0,22.8,16.79Z"/><path class="cls-3" d="M22.08,20.35h-3a1.84,1.84,0,0,0-2,2c0,2.11,0,4.22,0,6.33A1.72,1.72,0,0,0,17.74,30a1.58,1.58,0,0,1,.53,1.38c0,1.34,0,3.64,0,5a1,1,0,0,0,2.08,0v-6.1a.2.2,0,0,1,.4,0v6.09a1,1,0,1,0,2.09,0c0-1.33,0-3.51,0-4.8a2,2,0,0,1,.73-1.78,1.07,1.07,0,0,0,.42-.68c0-2.34,0-4.68,0-7A1.79,1.79,0,0,0,22.08,20.35Z"/><path class="cls-4" d="M65.66,9.2a3,3,0,0,0-.85-1.1,2.23,2.23,0,0,0-1.44-.48h-.29a2.23,2.23,0,0,0-1.44.48,3,3,0,0,0-.85,1.11L53.31,26.88a2.17,2.17,0,0,0-.2.83,1.94,1.94,0,0,0,.55,1.38,1.89,1.89,0,0,0,1.41.58,2,2,0,0,0,1.1-.33,2.06,2.06,0,0,0,.75-.89l1.74-4.18h9.13l1.75,4.2a2,2,0,0,0,.74.87,2,2,0,0,0,1.1.33,1.89,1.89,0,0,0,1.41-.58,1.94,1.94,0,0,0,.55-1.38,2.3,2.3,0,0,0-.2-.84Zm.57,11.36h-6l3-7.24Z"/><path class="cls-4" d="M87.17,14a7.52,7.52,0,0,0-3.76-1,7.19,7.19,0,0,0-4.47,1.52,1.81,1.81,0,0,0-.5-.81,2,2,0,0,0-1.4-.56,1.91,1.91,0,0,0-2,1.95V34.43a2,2,0,0,0,.56,1.39,1.87,1.87,0,0,0,1.39.59,1.92,1.92,0,0,0,1.42-.57A2,2,0,0,0,79,34.43V28.36a7.2,7.2,0,0,0,4.38,1.45,7.52,7.52,0,0,0,3.76-1,7.65,7.65,0,0,0,2.88-2.93,8.89,8.89,0,0,0,1.09-4.47,8.89,8.89,0,0,0-1.09-4.47A7.72,7.72,0,0,0,87.17,14ZM79,18.57a6.68,6.68,0,0,1,1.75-1.28A5,5,0,0,1,83,16.76a4,4,0,0,1,3,1.18A4.83,4.83,0,0,1,87.2,21.4a4.81,4.81,0,0,1-1.14,3.46h0A3.94,3.94,0,0,1,83,26a4.84,4.84,0,0,1-2.25-.53A6.68,6.68,0,0,1,79,24.23Z"/><path class="cls-4" d="M105.09,14a7.49,7.49,0,0,0-3.76-1,7.16,7.16,0,0,0-4.46,1.52,1.93,1.93,0,0,0-.51-.81A2,2,0,0,0,95,13.14a1.92,1.92,0,0,0-1.39.56A2,2,0,0,0,93,15.09V34.43a2,2,0,0,0,.56,1.39,1.87,1.87,0,0,0,1.4.59,1.93,1.93,0,0,0,2-2V28.36a7.22,7.22,0,0,0,4.38,1.45,7.49,7.49,0,0,0,3.76-1A7.58,7.58,0,0,0,108,25.87a8.89,8.89,0,0,0,1.1-4.47,8.89,8.89,0,0,0-1.1-4.47A7.65,7.65,0,0,0,105.09,14ZM97,18.57a6.85,6.85,0,0,1,1.75-1.28,5,5,0,0,1,2.25-.53,3.94,3.94,0,0,1,3,1.18,4.83,4.83,0,0,1,1.15,3.46A4.81,4.81,0,0,1,104,24.86h0A3.94,3.94,0,0,1,101,26a4.87,4.87,0,0,1-2.25-.53A6.85,6.85,0,0,1,97,24.23Z"/><path class="cls-4" d="M120.92,15a2,2,0,0,0-.54-1.38A1.89,1.89,0,0,0,119,13h-.14a5.73,5.73,0,0,0-4,1.75,2,2,0,0,0-2-1.6,1.9,1.9,0,0,0-1.4.59,2,2,0,0,0-.56,1.39V27.71a1.95,1.95,0,0,0,2,2,2,2,0,0,0,1.4-.56,1.94,1.94,0,0,0,.59-1.4V19a5.14,5.14,0,0,1,1.65-1.54,4.39,4.39,0,0,1,2.26-.6h.14a2,2,0,0,0,1.4-.53A1.79,1.79,0,0,0,120.92,15Z"/><path class="cls-4" d="M135,22.4A2,2,0,0,0,135.5,21a9.08,9.08,0,0,0-.88-4,7.26,7.26,0,0,0-2.64-3,7.47,7.47,0,0,0-4.1-1.11,7.34,7.34,0,0,0-4.26,1.2,7.21,7.21,0,0,0-2.57,3.11,10.28,10.28,0,0,0-.82,4.1,8.42,8.42,0,0,0,2.2,6.18h0a8.12,8.12,0,0,0,6,2.23,11.26,11.26,0,0,0,3.05-.35,11.15,11.15,0,0,0,2.4-1A1.88,1.88,0,0,0,135,26.8a1.68,1.68,0,0,0-.56-1.29,1.87,1.87,0,0,0-2.06-.31,8.14,8.14,0,0,1-1.68.63,8.35,8.35,0,0,1-2,.21,4.67,4.67,0,0,1-3.18-1,3.88,3.88,0,0,1-1.2-2.08h9.19A2,2,0,0,0,135,22.4Zm-10.67-2.87a3.71,3.71,0,0,1,.54-1.41,3.18,3.18,0,0,1,1.36-1.2,3.81,3.81,0,0,1,3.39,0,3.4,3.4,0,0,1,1.37,1.2,3.79,3.79,0,0,1,.56,1.41Z"/><path class="cls-4" d="M148.8,13.14A2,2,0,0,0,147,14.27l0,0-3.89,9.88-3.9-9.88v0a1.92,1.92,0,0,0-.72-.81,2,2,0,0,0-1.06-.32,1.87,1.87,0,0,0-1.4.59,2,2,0,0,0-.56,1.39,2.06,2.06,0,0,0,.2.86l5.1,12.22a2.5,2.5,0,0,0,.87,1,2.29,2.29,0,0,0,1.33.43h.29a2.3,2.3,0,0,0,1.34-.43,2.47,2.47,0,0,0,.87-1L150.56,16a2.23,2.23,0,0,0,.2-.86,2,2,0,0,0-.56-1.39A1.9,1.9,0,0,0,148.8,13.14Z"/><path class="cls-4" d="M165.58,22.4a1.94,1.94,0,0,0,.55-1.38,9,9,0,0,0-.89-4,7.16,7.16,0,0,0-2.63-3,7.49,7.49,0,0,0-4.1-1.11,7.34,7.34,0,0,0-4.26,1.2,7.21,7.21,0,0,0-2.57,3.11,10.28,10.28,0,0,0-.82,4.1,8.46,8.46,0,0,0,2.19,6.18h0a8.14,8.14,0,0,0,6,2.23,11.32,11.32,0,0,0,3.05-.35,11.15,11.15,0,0,0,2.4-1,1.88,1.88,0,0,0,1.08-1.64,1.68,1.68,0,0,0-.56-1.29A1.87,1.87,0,0,0,163,25.2a7.51,7.51,0,0,1-3.68.84,4.65,4.65,0,0,1-3.18-1A3.88,3.88,0,0,1,155,23h9.19A1.93,1.93,0,0,0,165.58,22.4Zm-10.67-2.87a3.89,3.89,0,0,1,.55-1.41,3.22,3.22,0,0,1,1.35-1.2,3.81,3.81,0,0,1,3.39,0,3.36,3.36,0,0,1,1.38,1.2,3.78,3.78,0,0,1,.55,1.41Z"/><path class="cls-4" d="M179.7,13.85a5.76,5.76,0,0,0-3.15-.86,6.61,6.61,0,0,0-3.36.82,9.6,9.6,0,0,0-1.48,1,2,2,0,0,0-2-1.7,1.87,1.87,0,0,0-1.4.59,2,2,0,0,0-.56,1.39V27.71a1.95,1.95,0,0,0,2,2,2,2,0,0,0,1.39-.56,1.9,1.9,0,0,0,.59-1.4V19.13a8.73,8.73,0,0,1,1.9-1.74,4,4,0,0,1,2.28-.66c1.79,0,2.59.91,2.59,2.94v8a1.92,1.92,0,0,0,.56,1.39,2,2,0,0,0,1.39.57,2,2,0,0,0,1.4-.56,1.94,1.94,0,0,0,.59-1.4V19.38a7.29,7.29,0,0,0-.69-3.18A5.64,5.64,0,0,0,179.7,13.85Z"/><path class="cls-4" d="M187.14,7.12H187a2.15,2.15,0,0,0-2.14,2.14v.11a2.09,2.09,0,0,0,.63,1.51h0a2.09,2.09,0,0,0,1.51.63h.17a2.13,2.13,0,0,0,2.13-2.14V9.26a2.13,2.13,0,0,0-2.13-2.14Z"/><path class="cls-4" d="M187,13.14a1.87,1.87,0,0,0-1.39.59,2,2,0,0,0-.56,1.39V27.71a1.89,1.89,0,0,0,.57,1.39,1.92,1.92,0,0,0,1.38.57,2,2,0,0,0,1.4-.56,1.9,1.9,0,0,0,.59-1.4V15.12a2,2,0,0,0-.57-1.42A2,2,0,0,0,187,13.14Z"/><path class="cls-4" d="M201.23,13.57a1.88,1.88,0,0,0-1.39-.58h-.14a5.73,5.73,0,0,0-4,1.75,2,2,0,0,0-1.95-1.6,1.9,1.9,0,0,0-1.4.59,2,2,0,0,0-.55,1.39V27.71a1.92,1.92,0,0,0,.56,1.39,1.94,1.94,0,0,0,1.39.57,2,2,0,0,0,1.4-.56,1.94,1.94,0,0,0,.59-1.4V19a5.14,5.14,0,0,1,1.65-1.54,4.3,4.3,0,0,1,2.26-.6h.15a2,2,0,0,0,1.4-.53,1.82,1.82,0,0,0,.58-1.37A2,2,0,0,0,201.23,13.57Z"/></g></g></svg>