<?xml version="1.0" encoding="utf-8"?>
<!-- Generator: Adobe Illustrator 24.1.2, SVG Export Plug-In . SVG Version: 6.00 Build 0)  -->
<svg version="1.1" id="_1" xmlns="http://www.w3.org/2000/svg" xmlns:xlink="http://www.w3.org/1999/xlink" x="0px" y="0px"
	 viewBox="0 0 671.7 672.1" style="enable-background:new 0 0 671.7 672.1;" xml:space="preserve">
<style type="text/css">
	.st0{fill:none;}
	.st1{fill:#263238;}
	.st2{fill:#FFFFFF;}
	.st3{fill:#009E9E;}
	.st4{fill:#455A64;}
	.st5{fill:#FFBE9D;}
	.st6{fill:#EB996E;}
</style>
<g>
	<path class="st0" d="M85.5,548.3C85.5,548.3,85.4,548.3,85.5,548.3l-0.3,0.1C85.2,548.4,85.4,548.4,85.5,548.3z"/>
	<path class="st1" d="M642.8,212.7L642.8,212.7L642.8,212.7z"/>
	<path class="st2" d="M664.9,349.2l-0.5,0.2l0.1,0.5c0.2-0.1,0.3-0.1,0.5-0.2L664.9,349.2z"/>
	<path class="st0" d="M117.9,392.6L117.9,392.6c0.1-1.8,0.2-3.7,0.2-5.5L117.9,392.6z"/>
	<path class="st0" d="M85.4,548.3C85.4,548.3,85.5,548.3,85.4,548.3c0.4-0.1,0.8-0.2,1.1-0.3c-0.3,0.2-0.6,0.4-0.8,0.6
		c6.8,7.8,13.9,15.3,21.4,22.5l2.1-31.5L85.4,548.3z"/>
	<path class="st0" d="M119.2,365.3c0-0.1,0-0.2,0-0.3l-1.8-0.1l1.8,0.1V365.3z"/>
	<path class="st3" d="M155.4,92.8c14-4,27.8-9,41.1-14.9c10.9-4.9,21.3-11,30.8-18.2c6.4-4.9,12.2-10.5,17.3-16.7
		c1.9-2.2,3-4.1,4-5.2c0.4-0.5,0.8-1,1.2-1.5c-1.1-4.7-1.9-9.6-2.4-14.6c-5.6,1.5-11.2,3.2-16.7,5c-1.8,1.7-3.5,3.4-5.1,5.4
		c0.5-1.2,1.1-2.2,1.9-3.2c0.4-0.6,0.9-1.1,1.4-1.6c-50.9,17-96.2,46.2-132.4,84.2c5.5-2.2,11.1-4.2,16.8-6
		C126.3,101.1,140.5,97.3,155.4,92.8z"/>
	<path class="st3" d="M608.1,508.7c-1.8,0.1-3.7,0.2-5.6,0.3c-25.8,1.3-56.2,4.4-90.3,8.7s-70.9,10.2-110,15.2
		c-36.7,5-73.7,7.8-110.8,8.5c-30.3,0.5-60.5-1.7-90.4-6.6c-16.2-2.7-32.2-6.4-47.9-11.2l-67.7,24.8l21.6,22.8
		c58.5,56,137.8,90.4,225.1,90.4C448.5,661.5,550.6,600.5,608.1,508.7z"/>
	<path class="st3" d="M657.1,317.3c0-0.8-0.1-1.6-0.1-2.3l-23.3-100.6L657.1,317.3z"/>
	<path class="st3" d="M597.3,369.3c-23.5,5.5-45,9.1-60.6,11.3c-7.8,1.1-14.2,1.8-18.5,2.2l-5,0.5l-1.8,0.1l1.7-0.5l5-0.6
		c4.3-0.5,10.7-1.3,18.6-2.6c15.5-2.2,37-5.9,60.5-11.2c23.5-5.3,44.3-11.5,59.4-16.5l0.9-0.3c0.2-5.2,0.4-10.5,0.4-15.8
		c0-6.3-0.2-12.6-0.6-18.8l-23.5-103L657,314.9c-8-125.6-87.3-231.8-197.8-278.7c-10.6,45.4-50.2,80.2-99,82.8
		c-52.8,2.8-98.7-33-110.3-82.7c-1.5,2.4-3.2,4.7-5,6.8c-5,6.3-10.8,12-17.3,16.9c-9.5,7.3-19.8,13.5-30.7,18.5
		c-13.4,5.9-27.2,11-41.3,15c-14.9,4.3-29.2,8.4-42,12.6c-6.1,1.9-12.2,4.1-18.1,6.5c-10.8,11.5-20.8,23.7-29.9,36.6
		c3.2,2.5,6.3,5.1,9.3,7.8c12.2,10.8,23.1,22.8,32.3,35.9c2.8,3.9,5.3,8,7.6,12.2c0.8,1.5,1.5,3.1,2.1,4.8c-0.4,0-4.2-6.3-11.5-16
		c-11.6-15.8-25.4-30.2-40.9-42.8c-19.6,28.4-34.9,60-44.7,94c23.2,6.5,46.8,11.1,70.8,13.8c6.5,0.7,11.7,1.2,15.4,1.4l4.4,0.4
		l1.2,0.1h-5.7c-3.7,0-9-0.5-15.4-1.2c-16.9-1.8-33.7-4.6-50.3-8.4c-6.9-1.6-13.8-3.4-20.6-5.4c-8.5,28.7-12.9,59-12.9,90.2
		c0,7.7,0.3,15.3,0.8,22.8l109.8,6.1l1.8,0.1c1.2-24.6,2.7-46.8,4.2-63c0.8-8.4,1.5-15.1,2.2-19.7c0.1-1.7,0.3-3.5,0.6-5.2
		c0-0.5,0.2-0.9,0.5-1.3c0.2-0.3,0.3-0.2,0.3-0.2c0.1,0,0.1,0.1,0.1,0.1s0,0-0.1-0.1c0,0-0.1,0-0.2,0.1c-0.2,0.4-0.3,0.9-0.3,1.3
		c-0.2,1.2-0.5,3-0.7,5.3c-0.5,4.7-1,11.4-1.5,19.8c-1.2,16.7-2.5,39.8-3.7,65.3c-0.4,8.5-0.8,16.7-1.1,24.5l262.3-99.2
		c0.7-2.4,1.1-7.7,1.5-13.4c-1.9,0.1-3.8,0.3-5.7,0.4c-31.9,2.4-62,4.1-89.5,5.1s-52.4,1.2-73.2,1.1c-41.6-0.2-67.2-1.5-67.2-1.5
		h4.7l13.3,0.3c11.5,0.3,28.4,0.5,49.2,0.5s45.7-0.3,73.1-1.3s57.8-2.6,89.5-5.1c1.9-0.2,3.9-0.3,5.8-0.5c0.4-7.6,0.8-15.9,1.8-19.9
		c2.5-10.7,3.1-21.7,1.9-32.6c-1.4-13.2-4-30.8-8.4-40c-5.2-11.4,5.5-23.2,15.5-17.6c10,5.6,32,36.6,33,77c0,0,2.5,16.5,21.3,12.6
		c27.3-5.7,120.3-30.2,136.6-32.1c14.6-1.5,31.3,1,20.7,10.3c-4.1,3.5-17.2,10.3-31.6,17.3c4.5-0.8,8.5-1.5,12.1-2.1
		c0.7-0.2,1.4-0.5,2.1-0.7c17-5.6,31.3-8.4,33.4-3.3c2.3,6.1-5.2,15.8-27.5,27.7c5-1.9,9.5-3.5,13.3-4.8c10.2-3.5,18.5-5.6,21.9-4.8
		c15.4,3.6-8.2,19.2-30.9,31.7c11.8-5.4,21.2-9.2,25.9-10.5c4.7-1.5,5.7-0.1,8,3.1c4.3,5.7-8.9,21.9-40.9,42.4l-147.8,81l-0.8,0.5
		l-23.1,12.6l-265.8,97.2c15.5,4.7,31.3,8.3,47.3,10.9c29.9,4.8,60.1,6.9,90.3,6.4c37-0.8,74-3.7,110.7-8.7
		c38.9-5,76.2-10.8,110-15.2s64.5-7.4,90.4-8.6c2.1-0.1,4.1-0.2,6.2-0.3c28.3-45.5,45.8-98.6,48.6-155.4c-0.2,0.1-0.5,0.2-0.7,0.2
		C641.6,357.6,620.7,363.8,597.3,369.3z M449.3,67c0.9,0,1.9,0.1,2.8,0.4c3.1,0.7,5.9,2.2,8.3,4.3c2.4,2.1,4.3,4.7,5.5,7.6
		c0.3,0.9,0.6,1.9,0.8,2.8c0.1,0.3,0.1,0.6,0,0.9c-2.3-8.6-9.6-15-18.5-16C448.2,67,449.3,67,449.3,67z M421,100.7
		c2.3,1.7,4.3,3.6,6,5.9c1.7,2.2,3.2,4.6,4.3,7.2c0.5,1.1,0.8,2.2,1,3.4c-1.7-3.6-3.7-6.9-6-10.1c-2.5-3-5.3-5.8-8.3-8.2
		C419.1,99.3,420.1,99.9,421,100.7z M378.4,120.2c1.3,2.3,2.4,4.7,3.1,7.3s1.1,5.2,1.1,7.9c0,1.1-0.1,2.3-0.3,3.4
		c-0.2-3.7-0.7-7.5-1.6-11.1c-1.1-3.5-2.6-6.9-4.3-10.2C377.2,118.3,377.9,119.2,378.4,120.2z M324.6,129.7c0.5-3.2,1.4-6.3,2.7-9.3
		c0.5-1.3,1.2-2.5,2-3.6c-1.8,4.2-3.1,8.5-3.9,13c-0.5,4.5-0.6,9.1-0.3,13.7c-0.4-1.3-0.7-2.6-0.8-4
		C324,136.2,324.1,132.9,324.6,129.7z M272.5,112.2c0.4-3.3,1.2-6.5,2.5-9.6c1.5-3.6,3.6-6.9,6.3-9.7c0,0,0-0.1-0.1-0.1h0.1
		c0.1-0.1,0.2-0.2,0.3-0.3v0.1c0,0.1,0.1,0.1,0.1,0.2h0.2c0,0.1-0.1,0.1-0.1,0.2c0.2,0.4,0.4,0.9,0.4,1.3c-0.2-0.3-0.5-0.7-0.7-1
		c-2.4,2.9-4.4,6.1-5.8,9.6c-1.7,4.3-2.7,8.7-3.2,13.3C272.3,114.8,272.3,113.5,272.5,112.2z M239,70.5c1-2.6,2.4-5.1,4.3-7.2
		c1.9-2.1,4.2-3.8,6.8-5c1-0.6,2.1-1,3.3-1.1c-3.6,1.6-6.8,3.9-9.5,6.7c-2.5,3-4.4,6.4-5.8,10C238.2,72.7,238.5,71.5,239,70.5z
		 M558.6,119.9c-3,1.2-7.2,2.8-12.8,4.7c-11.2,3.9-27.5,9.2-48.1,14.3c-24.1,6.1-48.6,10.4-73.2,13c-30.3,2.5-60.8,2.4-91.1-0.5
		c-32.3-2.3-63-4.9-90.9-4.3c-24.7,0.1-49.4,3.5-73.4,10.1c-15.9,4.4-31.3,11.1-45.6,19.8c-5,3.3-9,5.9-11.2,7.8
		c-1.2,1.1-2.4,2.1-3.8,2.9l3.7-3c2.4-2,6.2-4.6,11.1-7.9c14.4-8.9,29.7-15.7,45.7-20.3c24.1-6.7,48.7-10.2,73.5-10.4
		c28-0.7,58.8,1.9,91,4.2c30.2,2.9,60.7,3,91,0.5c24.6-2.5,49-6.8,73.1-12.8c20.5-5,36.9-10.3,48.1-14c5.6-1.9,10-3.4,12.9-4.6
		l4.5-1.2L558.6,119.9z"/>
	<path class="st3" d="M582.7,252.6c-3.3,0.6-6.9,1.3-10.8,2c-6.7,3.2-13.5,6.5-19.9,9.4c0.5-0.2,0.9-0.4,1.4-0.6
		C564.6,259,574.8,255.3,582.7,252.6z"/>
	<path class="st2" d="M90.3,259.7c6.4,0.7,11.7,1.2,15.4,1.2h5.7l-1.2-0.1l-4.4-0.4c-3.7-0.2-8.9-0.7-15.4-1.4
		c-24-2.7-47.6-7.3-70.8-13.8c-0.1,0.3-0.2,0.5-0.2,0.8c6.8,2,13.7,3.8,20.6,5.4C56.6,255.1,73.4,257.9,90.3,259.7z"/>
	<path class="st2" d="M155.6,93.6c14.1-4,27.9-9.1,41.3-15c10.9-5,21.2-11.2,30.7-18.5c6.5-4.9,12.3-10.6,17.3-16.9
		c1.8-2.2,3.4-4.5,5-6.8c0,0,0,0,0-0.1c-0.4,0.5-0.9,1-1.2,1.5c-1,1.1-2.1,3-4,5.2c-5.1,6.2-10.9,11.8-17.3,16.7
		c-9.5,7.2-19.9,13.3-30.8,18.2c-13.3,5.9-27.1,10.9-41.1,14.9c-14.9,4.5-29.1,8.3-42,12.7c-5.7,1.8-11.3,3.8-16.8,6
		c-0.4,0.4-0.7,0.8-1.1,1.2c6-2.4,12-4.6,18.1-6.5C126.4,102,140.7,97.9,155.6,93.6z"/>
	<path class="st2" d="M545.6,124c-11.2,3.8-27.5,9-48.1,14c-24.1,6-48.5,10.3-73.1,12.8c-30.3,2.5-60.7,2.4-91-0.5
		c-32.2-2.3-63-4.9-91-4.2c-24.8,0.2-49.5,3.7-73.5,10.4c-15.9,4.6-31.3,11.4-45.7,20.3c-4.9,3.3-8.7,5.9-11.1,7.9l-3.7,3
		c1.3-0.8,2.6-1.7,3.8-2.9c2.2-1.9,6.2-4.5,11.2-7.8c14.4-8.7,29.7-15.4,45.6-19.8c24-6.6,48.7-10,73.4-10.1
		c27.9-0.6,58.6,2,90.9,4.3c30.3,2.9,60.7,3,91.1,0.5c24.6-2.6,49.1-7,73.2-13c20.5-5.1,36.9-10.5,48.1-14.3
		c5.5-1.9,9.8-3.5,12.8-4.7l4.4-1.7l-4.5,1.2C555.6,120.6,551.3,122.1,545.6,124z"/>
	<path class="st2" d="M377.5,279c-31.7,2.5-62.1,4.1-89.5,5.1s-52.3,1.3-73.1,1.3s-37.7-0.2-49.2-0.5l-13.3-0.3h-4.7
		c0,0,25.6,1.3,67.2,1.5c20.8,0.1,45.7-0.1,73.2-1.1s57.6-2.7,89.5-5.1c1.9-0.1,3.8-0.3,5.7-0.4c0-0.3,0-0.6,0.1-0.9
		C381.4,278.7,379.4,278.8,377.5,279z"/>
	<path class="st2" d="M582.7,252.6c1.2-0.4,2.3-0.8,3.4-1.1c-3.6,0.6-7.6,1.3-12.1,2.1c-0.7,0.3-1.4,0.7-2.1,1
		C575.9,253.8,579.5,253.2,582.7,252.6z"/>
	<path class="st2" d="M656.4,352.1c-15,4.9-35.8,11.2-59.4,16.5c-23.5,5.3-45,9-60.5,11.2c-7.8,1.2-14.2,2.1-18.6,2.6l-5,0.6
		l-1.7,0.5l1.8-0.1l5-0.5c4.3-0.4,10.8-1.1,18.5-2.2c15.6-2.2,37.1-5.8,60.6-11.3s44.4-11.7,59.3-16.7c0.2-0.1,0.5-0.2,0.7-0.2
		c0-0.2,0-0.4,0-0.5L656.4,352.1z"/>
	<path class="st2" d="M512.2,516.7c-33.8,4.4-71.1,10.2-110,15.2c-36.7,5-73.7,7.9-110.7,8.7c-30.2,0.5-60.4-1.6-90.3-6.4
		c-16-2.5-31.8-6.2-47.3-10.9l-0.7,0.2c15.7,4.8,31.7,8.6,47.9,11.2c29.9,4.9,60.1,7.1,90.4,6.6c37.1-0.7,74.1-3.5,110.8-8.5
		c39.1-5,75.9-10.9,110-15.2s64.5-7.4,90.3-8.7c1.9-0.1,3.7-0.2,5.6-0.3c0.2-0.3,0.4-0.6,0.6-0.9c-2.1,0.1-4.1,0.2-6.2,0.3
		C576.7,509.3,546,512.3,512.2,516.7z"/>
	<path class="st4" d="M105.2,193.9c7.3,9.8,11.2,16,11.5,16c-0.6-1.6-1.3-3.2-2.1-4.8c-2.2-4.2-4.7-8.3-7.6-12.2
		c-9.2-13.1-20-25.1-32.3-35.9c-3-2.7-6.1-5.3-9.3-7.8c-0.4,0.6-0.9,1.2-1.3,1.8C79.8,163.8,93.6,178.1,105.2,193.9z"/>
	<path class="st4" d="M281.9,92.8h-0.2c0,0.1,0.1,0.1,0.1,0.2C281.8,92.9,281.8,92.8,281.9,92.8z"/>
	<path class="st4" d="M281.6,92.6L281.6,92.6c-0.1,0-0.2,0.1-0.3,0.2h0.4C281.6,92.7,281.6,92.6,281.6,92.6z"/>
	<path class="st4" d="M282.2,94.3c-0.1-0.5-0.2-0.9-0.4-1.3c-0.1,0.1-0.2,0.2-0.2,0.3C281.7,93.6,281.9,93.9,282.2,94.3z"/>
	<path class="st4" d="M281.2,92.8L281.2,92.8c0.1,0.1,0.1,0,0.1,0H281.2z"/>
	<path class="st4" d="M281.7,92.9c0-0.1,0-0.1-0.1-0.2h-0.4c0,0,0,0.1-0.1,0.1c0.1,0.1,0.2,0.3,0.3,0.4
		C281.6,93.1,281.7,93,281.7,92.9z"/>
	<path class="st4" d="M275.7,102.9c1.4-3.5,3.4-6.7,5.8-9.6c-0.1-0.1-0.2-0.3-0.3-0.4c-2.7,2.8-4.8,6.1-6.3,9.7
		c-1.3,3.1-2.1,6.3-2.5,9.6c-0.2,1.3-0.2,2.7,0,4C272.9,111.6,274,107.1,275.7,102.9z"/>
	<path class="st4" d="M325.1,143.5c-0.3-4.6-0.2-9.2,0.3-13.7c0.8-4.5,2.1-8.8,3.9-13c-0.8,1.1-1.5,2.3-2,3.6
		c-1.3,3-2.2,6.1-2.7,9.3s-0.6,6.5-0.3,9.8C324.4,140.8,324.6,142.2,325.1,143.5z"/>
	<path class="st4" d="M382.3,138.8c0.2-1.1,0.3-2.3,0.3-3.4c0-2.7-0.4-5.3-1.1-7.9s-1.8-5-3.1-7.3c-0.5-1-1.2-1.9-2-2.7
		c1.7,3.3,3.2,6.7,4.3,10.2C381.5,131.3,382.1,135,382.3,138.8z"/>
	<path class="st4" d="M426.3,107.1c2.3,3.2,4.3,6.5,6,10.1c-0.2-1.2-0.5-2.3-1-3.4c-1.1-2.6-2.6-5-4.3-7.2c-1.7-2.3-3.7-4.2-6-5.9
		c-0.9-0.8-1.9-1.4-3-1.8C421,101.3,423.8,104.1,426.3,107.1z"/>
	<path class="st4" d="M466.7,83c0.1-0.3,0.1-0.6,0-0.9c-0.2-0.9-0.5-1.9-0.8-2.8c-1.2-2.9-3.1-5.5-5.5-7.6s-5.2-3.6-8.3-4.3
		c-0.9-0.3-1.9-0.4-2.8-0.4h-1.1C457,68,464.4,74.4,466.7,83z"/>
	<path class="st4" d="M253.4,57.2c-1.2,0.1-2.3,0.5-3.3,1.1c-2.6,1.2-4.9,2.9-6.8,5c-1.9,2.1-3.3,4.6-4.3,7.2
		c-0.5,1.1-0.8,2.2-0.9,3.4c1.4-3.6,3.3-7,5.8-10C246.6,61,249.8,58.8,253.4,57.2z"/>
	<path class="st4" d="M225.7,32.1c1.5-1.9,3.2-3.7,5.1-5.4c-0.6,0.2-1.2,0.4-1.8,0.6c-0.5,0.5-1,1.1-1.4,1.6
		C226.8,29.8,226.1,30.9,225.7,32.1z"/>
	<path class="st1" d="M118.2,387c-0.1,1.9-0.2,3.7-0.2,5.5l0.9-0.4l1.8-27.1l-1.5-0.1c0,0.1,0,0.2,0,0.3L118.2,387z"/>
	<path class="st1" d="M127.1,275.8C127.1,275.8,127.1,275.7,127.1,275.8C127,275.7,127.1,275.8,127.1,275.8z"/>
	<path class="st1" d="M118.9,392.2l0.6-0.2c0.3-7.8,0.7-16,1.1-24.5c1.2-25.5,2.5-48.6,3.7-65.3c0.5-8.4,1-15.1,1.5-19.8
		c0.2-2.3,0.5-4.1,0.7-5.3c0-0.4,0.1-0.9,0.3-1.3c0.1-0.1,0.2-0.1,0.2-0.1c-0.1-0.1-0.2-0.1-0.3,0.2c-0.3,0.4-0.5,0.8-0.5,1.3
		c-0.3,1.7-0.5,3.5-0.6,5.2c-0.7,4.6-1.4,11.3-2.2,19.7c-1.5,16.2-3,38.4-4.2,63l1.5,0.1L118.9,392.2z"/>
	<path class="st5" d="M250.1,36c-0.1,0.1-0.2,0.2-0.2,0.4c11.6,49.8,57.6,85.5,110.3,82.7c48.8-2.6,88.3-37.4,99-82.8
		c-39-16.5-81.9-25.7-127-25.7c-29.3,0-57.7,3.9-84.7,11.2c0.5,5,1.3,9.8,2.4,14.6C249.9,36.2,250,36.1,250.1,36z"/>
	<path class="st5" d="M249.8,36.3L249.8,36.3c0.1-0.1,0.2-0.2,0.3-0.3C250,36.1,249.9,36.2,249.8,36.3z"/>
	<path class="st5" d="M118,392.6L118,392.6l0.2-5.5c0.3-6.3,0.6-12.9,0.9-19.7c0-0.7,0.1-1.3,0.1-2v-0.3l-1.8-0.1L7.5,359.2
		c5.1,72,33.6,137.6,77.9,189.2l23.7-8.7l8-120.7C117.3,411,117.6,402.1,118,392.6z"/>
	<path class="st5" d="M7.5,358.9c0,0.1,0,0.2,0,0.3l109.8,5.8L7.5,358.9z"/>
	<path class="st5" d="M598.8,249.4c3.8-0.8,5.8-1.2,5.8-1.2l-4.6,0.7l-0.9,0.2C599.1,249.1,599,249.3,598.8,249.4z"/>
	<g>
		<path class="st5" d="M612.8,268.7c-1.6,0.5-3.3,1-5.3,1.7C609.3,269.8,611.1,269.2,612.8,268.7z"/>
		<path class="st5" d="M624.4,286.8c1.8-0.5,2.9-0.6,3.1-0.3c0.9,1.5-17.6,12.2-41.5,23.8s-43.9,19.8-44.6,18.2
			c-0.7-1.6,17.7-12.3,41.6-23.9c5.4-2.6,10.6-5.1,15.5-7.3c22.7-12.5,46.3-28.2,30.9-31.7c-2.8-0.7-8.9,0.7-16.6,3.1
			c4.6-1.4,7.3-1.9,7.6-1.3c0.7,1.6-19.9,11.7-45.9,22.5s-47.7,18.3-48.3,16.7c-0.9-1.6,19.9-11.8,45.9-22.6
			c7.9-3.3,15.5-6.3,22.1-8.8c22.3-12,29.8-21.7,27.5-27.7c-2.1-5.1-16.4-2.3-33.4,3.3c6.8-2.1,11-3.1,11.2-2.3
			c0.1,0.1-0.1,0.3-0.3,0.6l0.9-0.2l4.6-0.7c0,0-2,0.4-5.8,1.2c-3.6,3-21.2,11.3-42.9,19.9c-24.8,9.9-45.4,16.7-46,15
			c-0.7-1.6,17.9-10.6,42.2-20.3c6.4-3,21.2-10.1,21.9-10.4c0,0,0,0,0,0c14.4-7,27.5-13.8,31.6-17.3c10.6-9.3-6.1-11.8-20.7-10.3
			c-16.3,1.9-109.3,26.4-136.6,32.1c-18.8,3.9-21.3-12.6-21.3-12.6c-1-40.4-23-71.4-33-77c-10-5.6-20.7,6.2-15.5,17.6
			c4.4,9.2,7,26.8,8.4,40c1.2,10.9,0.6,21.9-1.9,32.6c-0.9,3.9-1.3,12.1-1.8,19.8c0,0,0,0,0,0c0,0.3,0,0.6-0.1,0.9
			c-0.3,5.7-0.5,11.1-1.3,13.5L119.4,392c-0.7,15.7-1.2,29.7-1.6,40.9c-0.3,8-0.5,14.8-0.7,19.8c0,1.8,0,3.5-0.2,5.3v1.9
			c-0.1-0.6-0.1-1.3,0-1.9v-25.2c0-4.2,0.1-8.8,0.2-13.8l-8,120.7l44-16.1c0.4-0.2,0.4-0.2,0.7-0.2l265.8-97.2l23.1-12.6l0.8-0.5
			l147.9-80.8c32-20.5,45.2-36.7,40.9-42.4C630.1,286.7,629.1,285.3,624.4,286.8z"/>
	</g>
	<path class="st5" d="M141.9,519.5c-3.5-1-6.4-2.2-9-3.2l-6.6-2.5l-5.5-2l5.4,2.2l6.6,2.6c2.5,1,5.6,2.2,9,3.3
		c3.8,1.3,7.6,2.5,11.4,3.7l0.7-0.2C149.8,522.1,145.8,520.8,141.9,519.5z"/>
	<path class="st5" d="M118,392.6c-0.4,9.5-0.7,18.4-0.8,26.4l1.8-26.8L118,392.6z"/>
	<path class="st5" d="M119.1,367.4c-0.3,6.7-0.6,13.3-0.9,19.7l1-21.7C119.1,366,119.1,366.7,119.1,367.4z"/>
	<path class="st5" d="M117,459.9V458C116.9,458.6,116.9,459.2,117,459.9z"/>
	<path class="st5" d="M117.1,419c-0.1,5-0.2,9.6-0.2,13.8V458c0.2-1.8,0.2-3.5,0.2-5.3c0.2-5,0.4-11.8,0.7-19.8
		c0.3-11.2,0.9-25.2,1.6-40.9l-0.6,0.2L117.1,419z"/>
	<path class="st6" d="M624.4,286.8c-4.7,1.3-14.1,5.1-25.9,10.5c-13.7,7.6-27.1,14-31.3,16C603.5,296.6,617.7,288.9,624.4,286.8z"/>
	<path class="st6" d="M567.2,313.3c-0.5,0.2-0.9,0.4-1.4,0.6C565.8,313.9,566.3,313.7,567.2,313.3z"/>
	<path class="st6" d="M541.4,328.5c0.7,1.6,20.7-6.6,44.6-18.2c23.9-11.6,42.4-22.3,41.5-23.8c-0.2-0.3-1.3-0.2-3.1,0.3
		c-6.7,2.1-20.9,9.9-57.2,26.5c-0.9,0.4-1.4,0.6-1.4,0.6c0.5-0.2,0.9-0.4,1.4-0.6c4.2-2,17.6-8.4,31.3-16c-4.8,2.2-10,4.6-15.5,7.3
		C559.1,316.2,540.7,326.9,541.4,328.5z"/>
	<path class="st6" d="M607.5,270.4c-3.8,1.3-8.3,2.9-13.3,4.8c-0.2,0.1-0.3,0.2-0.5,0.3C598.5,273.6,603.2,271.9,607.5,270.4z"/>
	<path class="st6" d="M526.2,306.5c0.6,1.6,22.3-5.9,48.3-16.7c26-10.8,46.6-20.9,45.9-22.5c-0.3-0.7-5.2,0.5-12.9,3
		c-4.3,1.5-9,3.2-13.8,5.1c0.2-0.1,0.3-0.2,0.5-0.3c-6.7,2.5-14.2,5.5-22.1,8.8C546.1,294.7,525.3,304.9,526.2,306.5z"/>
	<path class="st6" d="M583,252.5c-0.1,0-0.2,0-0.3,0.1c-8,2.7-18.1,6.5-29.2,10.9c-0.5,0.2-1,0.4-1.4,0.6
		c-5.3,2.5-10.2,4.7-14.4,6.6C549.2,265.6,566.9,258.1,583,252.5z"/>
	<path class="st6" d="M588.2,250.7c-0.7,0.2-1.4,0.4-2.1,0.7h0.1C586.9,251.2,587.6,251,588.2,250.7z"/>
	<path class="st6" d="M583,252.5c1.1-0.4,2.2-0.7,3.2-1.1h-0.1c-1.1,0.4-2.2,0.7-3.4,1.1C582.8,252.5,582.9,252.5,583,252.5z"/>
	<path class="st6" d="M587,251.3l12.2-2.2c0.2-0.3,0.3-0.5,0.3-0.6c-0.3-0.8-4.5,0.2-11.2,2.3c-0.7,0.2-1.3,0.4-2,0.7
		C586.5,251.4,586.7,251.3,587,251.3z"/>
	<path class="st6" d="M537.7,270.6c4.2-1.9,9.1-4.2,14.4-6.6c-24.3,9.7-42.9,18.8-42.2,20.3c0.6,1.7,21.2-5.1,46-15
		c21.8-8.7,39.4-16.9,42.9-19.9c-3.7,0.7-9,1.8-15.8,3.1C566.9,258.1,549.2,265.6,537.7,270.6z"/>
	<path class="st6" d="M586.3,251.4c-1.1,0.4-2.1,0.7-3.2,1.1c6.8-1.3,12.1-2.4,15.8-3.1c0.2-0.1,0.3-0.2,0.4-0.4l-12.2,2.2
		C586.7,251.3,586.5,251.4,586.3,251.4z"/>
</g>
</svg>
