<svg id="Capa_1" data-name="Capa 1" xmlns="http://www.w3.org/2000/svg" viewBox="0 0 588.58 936.1"><defs><style>.cls-1{fill:#263238;}.cls-2{fill:#455a64;}.cls-3{fill:#20e57e;}.cls-4{opacity:0.3;}.cls-5{fill:#fafafa;}.cls-6{fill:#ffbe9d;}.cls-7{fill:#eb996e;}.cls-8{fill:#e0e0e0;}</style></defs><g id="freepik--character-1--inject-2"><path class="cls-1" d="M341.82,45.72c27.42-24.72,62.39-3.48,81.09,10.76,37.73,28.8,30.75,75.61,45.6,115.13,9.25,23.66,27.4,45.12,31.56,69.78,4.41,26-7.26,53.47,2.25,78.54,10.08,27.63,48.91,50,42.87,82.61-13.77,42.89-86.13,57.1-129.18,55C293,447.9,357,311.71,370.37,236.52c11.09-61.4-4.41-132.5-28.65-190.9" transform="translate(-88.16 -22.24)"/><path class="cls-2" d="M504,443.28c11.69-18.92,2.62-42.26-4.93-61.08a762.74,762.74,0,0,1-43.64-146.26,759.59,759.59,0,0,1-11.22-83.38c-1.69-41.47-11-98.95-60.33-105.23,48.73,8.33,57.36,63.68,58.94,105.42a732.31,732.31,0,0,0,11.12,83.58c10,59.37,32.46,115,52.93,171.23C510,419.34,510.13,432.43,504,443.28Z" transform="translate(-88.16 -22.24)"/><path class="cls-3" d="M503.19,372.73l-115.7-4.9c-62.32,20-197.94,66.81-256.39,93.75L254.54,897.43l-18.83,60.92H589.44L573.52,627.76Z" transform="translate(-88.16 -22.24)"/><g class="cls-4"><path d="M263.56,901.14Q279.9,790.71,296.21,680.3c2-13.54,4.48-28.08,14.28-37.62,9.28-9.08,23-11.5,36-13.11,60.43-10.74,105.74,9.25,135.55,63.11C525.7,765.77,585.57,813.31,586.8,903,553.44,892.73,521.6,860,503,830.62c-28.45-39.11-70-181.09-135.95-138.76-31.36,69.44-14.77,165.56-81.54,217.27C277.1,918.05,259.61,916.56,263.56,901.14Z" transform="translate(-88.16 -22.24)"/></g><path class="cls-3" d="M647.39,538.45c0-3.22-51-165.72-144.2-165.72L531.78,567.3Z" transform="translate(-88.16 -22.24)"/><path class="cls-3" d="M131.1,461.58s-29,24.82-33.43,45.61-9.51,122.73-9.51,122.73l113.23-7.83Z" transform="translate(-88.16 -22.24)"/><path class="cls-1" d="M521.6,457.72c7,61.53,28.2,146.34,38,207.49C552.69,603.79,531.87,518.64,521.6,457.72Z" transform="translate(-88.16 -22.24)"/><path class="cls-1" d="M173.22,533c3.77,35,14.44,83,21.11,117.71C190.23,615.71,179.59,567.74,173.22,533Z" transform="translate(-88.16 -22.24)"/><path class="cls-5" d="M128.36,466.22C146,482,172.73,486,194.72,477.8c21.5-8.84,42.52-32.72,69-26.43,60.39,18.12,102.08,34.07,151.48-20.44,9.45-10.5,22.57-18.13,37-18.14,29-1.1,54.91,16.35,83.25,11.18,13.2-2.5,26.94-10.94,30.49-24.59-8.55,23.53-38,27.87-59.53,22.17-16.2-3.46-36.12-11.15-54.28-10.34-14.8,0-28.34,7.72-38.06,18.53-48.81,53.9-90.36,37.78-150.09,19.95-26.65-6.41-48.25,17.71-69.62,26.85C172.37,485,146.8,480.51,128.36,466.22Z" transform="translate(-88.16 -22.24)"/><path class="cls-5" d="M539.16,527.33c35.25,10.07,55.41-65.14,90.41-32-11.19-17.86-35.89-7-46.67,5.93C570.74,514.18,558.45,529.69,539.16,527.33Z" transform="translate(-88.16 -22.24)"/><path class="cls-5" d="M204.16,616.09c33.77,20.69,77.21,6.67,100.62-23.07,15.39-17.27,34.55-35,59.27-33.88,23.62.44,47,10.81,69.4,15.41,36.45,7.44,76.32,3.23,109.67-13C509.32,576,470,580.88,433.77,573c-22.44-4.72-46-15.14-69.72-15.46a59.42,59.42,0,0,0-35.19,10.86c-17.87,12.83-30,31.91-48.12,44.38C258.33,627.77,227.8,628.87,204.16,616.09Z" transform="translate(-88.16 -22.24)"/><path class="cls-5" d="M91.1,554.83c26.26,39.33,57.53-11,90.63,19.14C152.5,541.27,118.5,591.46,91.1,554.83Z" transform="translate(-88.16 -22.24)"/><path class="cls-5" d="M214.51,712.85c54.88-3.36,95.09,54.59,148.13,7,21-18.73,50.64-13.33,73.55-1.9,57.39,31.53,98.39,6.31,137.78-37.55-42.33,42.72-78.27,67.56-137,36-23-11.7-53.76-16.94-75.13,1.84C308.78,766.09,268.69,706.34,214.51,712.85Z" transform="translate(-88.16 -22.24)"/><path class="cls-5" d="M251.67,871.45c10.81-14.92,30.74-21.82,48.57-17.59,25.89,4.86,36.18,42.48,65.49,36.74,32.11-5.59,45-46,78.09-49.64,48.2-5.92,98.95,58,141.88,14.28-44.2,41.2-93.21-22-141.81-15.92-33.3,3.31-46.46,43.8-78.16,49.67-28.82,5.38-39-31.88-64.94-36.2C282.71,848.63,262,855.92,251.67,871.45Z" transform="translate(-88.16 -22.24)"/><g class="cls-4"><path d="M166.81,440.44c42.87-30.79,101.76-57.4,153.38-67.13,12.54,35.93,20.24,77.35,38.29,110.64,2.42,4.48,5,9.41,4,14.41-15.28,26.1-69.41,26-95.31,16.76l-.39,15.44C213.71,548.51,149.76,495.81,166.81,440.44Z" transform="translate(-88.16 -22.24)"/></g><path class="cls-6" d="M231.88,83A23.66,23.66,0,0,0,212,108h0l29.59,317.79C244,463.42,300,481.86,340.24,479c41.05-3.38,40.9-22.12,39.64-60.51-2-59.25-3.22-81-3.14-80.14,72.83-14.41,62.53-135.64,52.05-212.68C402.81-8.56,314.17,65.23,231.88,83Z" transform="translate(-88.16 -22.24)"/><path class="cls-1" d="M402,177.31c.87,10.61-16.06,12.58-17.12,1.78C383.94,168.46,400.91,166.51,402,177.31Z" transform="translate(-88.16 -22.24)"/><path class="cls-1" d="M418.72,158.27c-1,1.19-7.77-3.23-17-2.81s-15.79,5.45-16.86,4.39C388,147.88,414.56,146.55,418.72,158.27Z" transform="translate(-88.16 -22.24)"/><path class="cls-1" d="M314.07,185.44C314.94,196.05,298,198,297,187.21,296,176.58,313,174.63,314.07,185.44Z" transform="translate(-88.16 -22.24)"/><path class="cls-1" d="M327.05,165.1c-1,1.16-7.76-3.22-17-2.84s-15.8,5.48-16.86,4.39C296.4,154.7,322.91,153.34,327.05,165.1Z" transform="translate(-88.16 -22.24)"/><path class="cls-1" d="M364.7,229.14c27.9-7.35,22-.49,9.93-30.62-25.84-58.73-22-60.28,3.67-1.55C389,222.11,396.9,230.24,364.7,229.14Z" transform="translate(-88.16 -22.24)"/><path class="cls-7" d="M376.79,338.46a170.75,170.75,0,0,1-91-19.33s25.07,46.18,91.85,36.48Z" transform="translate(-88.16 -22.24)"/><path class="cls-7" d="M362,251.64c-8.36-11.79-33.76-3.3-25.65,11.79,6.51,9.42,29.61-4.82,26.07-11.5" transform="translate(-88.16 -22.24)"/><path class="cls-1" d="M336.15,238.94c1.48-.19,2,9.86,11,16.57s19.6,5,19.73,6.44c-3.92,4.71-18.24,2.13-23.24-2.38C338,256.34,332.07,243.53,336.15,238.94Z" transform="translate(-88.16 -22.24)"/><path class="cls-1" d="M330.89,128.36c-1.06,2.45-10.22.74-21.14,1.41s-19.89,3.23-21.18.78C292.08,118.28,326.11,116.56,330.89,128.36Z" transform="translate(-88.16 -22.24)"/><path class="cls-1" d="M417.52,146.47c-1.38,2.32-8.25,1.06-16.11,2.09S387,152,385.29,150.05C384.67,138.17,415.69,134.45,417.52,146.47Z" transform="translate(-88.16 -22.24)"/><path class="cls-6" d="M240.48,209.71C234.82,180,195.58,189.12,201,222c3.6,40.32,43.31,28.37,43.28,27.2S242.22,226.37,240.48,209.71Z" transform="translate(-88.16 -22.24)"/><path class="cls-7" d="M230.65,235c-8,6.21-15.24-3.11-16.47-13.09-1.35-5.63,2.55-21.32,10.16-14.54,1.72,5.85,2.54-5-4.77-3.51-14.07,5.24-8.85,32.51,3.61,34.84C225.71,239.56,230.68,237.63,230.65,235Z" transform="translate(-88.16 -22.24)"/><path class="cls-1" d="M155.94,379.94c3.23-27.71-7.89-45.54-7.67-73.45,2.95-68,18.52-136,43.13-199.44C212.51,49.16,295.13-8.29,350.07,40.79c44.54-6.91,60.46,28.92,58.49,30.71-29.36-27.43-49.4-3.22-49.4-3.22-17.86-18.5-47.58-2.51-57.83,15-14.43,24.72-15.79,39.45-19.56,52.37-9.47,32.39-38.68,38.84-36.81,72.55,2.16,43.19,26.76,76.48,30.11,119.61a237.24,237.24,0,0,0,5.25,37.61c3.48,12.69,67.26,120.8,21,121l-41.89-2.29-33.78-21.66,1.06,22.15-55.4,3.73c-13.47-11.41-17.31-30.55-15.92-47.95S153.85,397.28,155.94,379.94Z" transform="translate(-88.16 -22.24)"/><path class="cls-2" d="M360.9,64.83c-33.6-70-80.29,27.06-93.25,60.63C284,93.35,325.25-1.61,360.9,64.83Z" transform="translate(-88.16 -22.24)"/><path class="cls-2" d="M299.14,87.07c5.77-10.51,18.19-33.64,33.07-37.26,12.05-.84,18.32,12.13,27,18.34-6.72-7.47-15.2-21.06-27.24-20C315.27,53.64,305.17,71.61,299.14,87.07Z" transform="translate(-88.16 -22.24)"/><path class="cls-2" d="M235.55,461.87C181.26,364.39,203.37,242,235.14,142c15.38-49.52,25.59-97.64,75.8-115.25-51.22,15.66-61.33,66.05-77.19,115a886.42,886.42,0,0,0-23.3,89.37C194.86,307.61,194.88,392.87,235.55,461.87Z" transform="translate(-88.16 -22.24)"/><path class="cls-2" d="M223.92,479.31c-78.53-88.88-38.42-219.12-8.09-318.4,15.09-52.07,22.4-95.5,61.4-130.69C236.88,64,229.84,108.81,214.41,160.49,183.83,260.53,143.28,392.14,223.92,479.31Z" transform="translate(-88.16 -22.24)"/><path class="cls-2" d="M253.15,376.69c20.26-37.92-13.65-74.14-25.69-109.07-11-27.46.77-57.21,12.77-82,13.34-29.06,24.9-53.53,36.77-81-12.72,25.24-24.5,51-38.45,80.31-19.84,38.3-24.54,69.64-1.48,108.2C251,318.8,266.49,347.93,253.15,376.69Z" transform="translate(-88.16 -22.24)"/><path class="cls-6" d="M631.21,542.51C642,592,691.4,777.18,672.47,838.38c-11.19,26.82-47.9,42.94-70.27,37.36S444.57,677,444.57,672.43h0l43.6-49.18,72.68,49.18L541.77,564.85Z" transform="translate(-88.16 -22.24)"/><rect class="cls-2" x="227.13" y="397.44" width="113.64" height="216.55" rx="11.41"/><path class="cls-6" d="M355,544.74c22.24-1.35,62.38,7.76,82.86,9.67l-17.43-21.57s-47.57-8.5-57.53-11.34c-9.79-2.87-2.5-16.78,5.77-15.6l65.23,1.39,44.73,39.06v57.5l12.9,21.82-44.67,48c-5-3.41-41-18.93-35.68-35l-38-12.89c-4.85-1.55-7.33-6.41-6.77-11.31l48.34-3.58-52.63-9.09a6.8,6.8,0,0,1,.52-13.47l61.23-5.83L373,565.36a204,204,0,0,1-25-9.18C343.36,553.79,345.59,546.45,355,544.74Z" transform="translate(-88.16 -22.24)"/><path class="cls-7" d="M551.63,666.15c24.22,18.57,64.78,44.27,79.87,72.84C616.11,706.12,579.25,684.23,551.63,666.15Z" transform="translate(-88.16 -22.24)"/><path class="cls-8" d="M366.15,445.63a5.22,5.22,0,0,0,5.22,5.22c6.78.1,6.77-10.54,0-10.44A5.22,5.22,0,0,0,366.15,445.63Z" transform="translate(-88.16 -22.24)"/><path class="cls-6" d="M260.5,554.92l28.81-44.25s65.3-21.59,73.55-20.05c7.06,1.53,7.26,11.8,7.22,16.57l-8.41,5.67-38.39,7.06-22.56,15.44,15.41-7.22,45.12-7c6.44-1.21,16.5,2.58,16.34,10-2.82,11.11-42.84,17.19-52.12,21.4l-11.86,21.91,41.65-12.89s25.59,8.48,27.26,11.8c.14,6.89-45.44,21.68-51.57,26.17l30.56,1.26,32.87,6.12-13.5,6.44-25.79,3.23L333,627.38l1,20s-9.67,20.6-18.76,25.79-46.06-45.13-46.06-45.13l-2.58-24.17-6.15-22.56C263.92,566.4,264.59,570,260.5,554.92Z" transform="translate(-88.16 -22.24)"/><path class="cls-6" d="M315.29,673.21,268,894.69s-14.38,46.64-66.3,46.64c-83.57-7.75-85.09-254.84-106.62-311.89L188,621.28l25.5,131.37L269.2,628Z" transform="translate(-88.16 -22.24)"/><path class="cls-7" d="M181.47,877.09a184.35,184.35,0,0,1,34.36-130.53C186.2,781.8,173.14,831.87,181.47,877.09Z" transform="translate(-88.16 -22.24)"/><path class="cls-1" d="M88.16,629.92c4.25-38,5.81-83,11.61-127.24,5.79-18.53,22.42-31.08,36.93-42.87,3.63-1.63,15.45-6.42,18.76-8.22-3.37.86-15.6,6-19.14,7.29-15,11.66-32.12,24.45-37.94,43.38C92.58,546.82,90.63,591.43,88.16,629.92Z" transform="translate(-88.16 -22.24)"/></g></svg>