<svg xmlns="http://www.w3.org/2000/svg" width="21.582" height="21.582" viewBox="0 0 21.582 21.582"><defs><style>.a{fill:rgba(74,101,112,0.5);}</style></defs><path class="a" d="M13.791,3A10.791,10.791,0,1,0,24.582,13.791,10.795,10.795,0,0,0,13.791,3ZM8.471,20.568c.464-.971,3.291-1.921,5.32-1.921s4.867.95,5.32,1.921a8.552,8.552,0,0,1-10.64,0ZM20.654,19c-1.543-1.878-5.288-2.514-6.863-2.514S8.471,17.125,6.928,19a8.633,8.633,0,1,1,13.726,0ZM13.791,7.316a3.777,3.777,0,1,0,3.777,3.777A3.767,3.767,0,0,0,13.791,7.316Zm0,5.4a1.619,1.619,0,1,1,1.619-1.619A1.616,1.616,0,0,1,13.791,12.712Z" transform="translate(-3 -3)"/></svg>