<svg xmlns="http://www.w3.org/2000/svg" width="18.506" height="20.563" viewBox="0 0 18.506 20.563"><defs><style>.a{fill:#3e6472;}</style></defs><path class="a" d="M10.669,12.253H8.613V14.31h2.056Zm4.113,0H12.725V14.31h2.056Zm4.113,0H16.838V14.31h2.056Zm2.056-7.2H19.922V3H17.866V5.056H9.641V3H7.584V5.056H6.556A2.047,2.047,0,0,0,4.51,7.113L4.5,21.506a2.056,2.056,0,0,0,2.056,2.056H20.95a2.062,2.062,0,0,0,2.056-2.056V7.113A2.062,2.062,0,0,0,20.95,5.056Zm0,16.45H6.556V10.2H20.95Z" transform="translate(-4.5 -3)"/></svg>