<svg xmlns="http://www.w3.org/2000/svg" width="19.937" height="19.937" viewBox="0 0 19.937 19.937"><defs><style>.a{fill:rgba(74,101,112,0.5);}</style></defs><path class="a" d="M11.972,18.95h1.994V16.956H11.972Zm1-15.95a9.969,9.969,0,1,0,9.969,9.969A9.972,9.972,0,0,0,12.969,3Zm0,17.944a7.975,7.975,0,1,1,7.975-7.975A7.985,7.985,0,0,1,12.969,20.944Zm0-13.956a3.986,3.986,0,0,0-3.987,3.987h1.994a1.994,1.994,0,1,1,3.987,0c0,1.994-2.991,1.745-2.991,4.984h1.994c0-2.243,2.991-2.492,2.991-4.984A3.986,3.986,0,0,0,12.969,6.987Z" transform="translate(-3 -3)"/></svg>