<svg xmlns="http://www.w3.org/2000/svg" width="23.923" height="23.923" viewBox="0 0 23.923 23.923"><defs><style>.a{fill:#fff;}</style></defs><path class="a" d="M13.765,22.138h2.392V19.746H13.765ZM14.962,3A11.962,11.962,0,1,0,26.923,14.962,11.966,11.966,0,0,0,14.962,3Zm0,21.531a9.569,9.569,0,1,1,9.569-9.569A9.582,9.582,0,0,1,14.962,24.531Zm0-16.746a4.783,4.783,0,0,0-4.785,4.785h2.392a2.392,2.392,0,0,1,4.785,0c0,2.392-3.588,2.093-3.588,5.981h2.392c0-2.691,3.588-2.99,3.588-5.981A4.783,4.783,0,0,0,14.962,7.785Z" transform="translate(-3 -3)"/></svg>