<svg xmlns="http://www.w3.org/2000/svg" width="16.296" height="21.389" viewBox="0 0 16.296 21.389"><defs><style>.a{fill:rgba(74,101,112,0.5);}</style></defs><path class="a" d="M20.259,8.63H19.241V6.593a5.093,5.093,0,0,0-10.185,0V8.63H8.037A2.043,2.043,0,0,0,6,10.667V20.852a2.043,2.043,0,0,0,2.037,2.037H20.259A2.043,2.043,0,0,0,22.3,20.852V10.667A2.043,2.043,0,0,0,20.259,8.63ZM11.093,6.593a3.056,3.056,0,1,1,6.111,0V8.63H11.093Zm9.167,14.259H8.037V10.667H20.259ZM14.148,17.8a2.037,2.037,0,1,0-2.037-2.037A2.043,2.043,0,0,0,14.148,17.8Z" transform="translate(-6 -1.5)"/></svg>