<svg xmlns="http://www.w3.org/2000/svg" width="15.359" height="21.582" viewBox="0 0 15.359 21.582"><defs><style>.a{fill:rgba(54,72,79,0.6);}</style></defs><g transform="translate(-6 -3)"><path class="a" d="M7.93,3h8.685a2.054,2.054,0,0,1,1.93,2.158V7.316h-1.93V5.158H7.93V22.424h8.685V20.266h1.93v2.158a2.054,2.054,0,0,1-1.93,2.158H7.93A2.054,2.054,0,0,1,6,22.424V5.158A2.054,2.054,0,0,1,7.93,3Z"/><path class="a" d="M18.782,16.9l1.05,1.05,3.725-3.725L19.832,10.5l-1.05,1.05L20.7,13.48H13.5v1.49h7.2Z" transform="translate(-2.198 -0.598)"/></g></svg>