<svg xmlns="http://www.w3.org/2000/svg" width="20.771" height="21.354" viewBox="0 0 20.771 21.354"><defs><style>.a{fill:rgba(74,101,112,0.5);}</style></defs><path class="a" d="M21.727,14.723a8.32,8.32,0,0,0,.075-1.046,8.32,8.32,0,0,0-.075-1.046l2.253-1.762a.539.539,0,0,0,.128-.683L21.972,6.491a.534.534,0,0,0-.651-.235L18.662,7.324a7.8,7.8,0,0,0-1.8-1.046l-.406-2.829A.521.521,0,0,0,15.929,3H11.658a.521.521,0,0,0-.523.448L10.73,6.278a8.2,8.2,0,0,0-1.8,1.046L6.267,6.256a.6.6,0,0,0-.192-.032.529.529,0,0,0-.459.267L3.48,10.185a.526.526,0,0,0,.128.683L5.861,12.63a8.467,8.467,0,0,0-.075,1.046,8.467,8.467,0,0,0,.075,1.046L3.608,16.485a.539.539,0,0,0-.128.683l2.135,3.694a.534.534,0,0,0,.651.235l2.659-1.068a7.8,7.8,0,0,0,1.8,1.046l.406,2.829a.521.521,0,0,0,.523.448h4.271a.521.521,0,0,0,.523-.448l.406-2.829a8.2,8.2,0,0,0,1.8-1.046L21.321,21.1a.6.6,0,0,0,.192.032.529.529,0,0,0,.459-.267l2.135-3.694a.539.539,0,0,0-.128-.683l-2.253-1.762ZM19.613,12.9a5.7,5.7,0,0,1,.053.779c0,.224-.021.459-.053.779l-.149,1.206.95.747,1.153.9L20.819,18.6l-1.356-.545-1.11-.448-.961.726a6.253,6.253,0,0,1-1.335.779l-1.132.459-.171,1.206-.214,1.441H13.046l-.2-1.441-.171-1.206-1.132-.459a6.058,6.058,0,0,1-1.313-.758l-.972-.747-1.132.459-1.356.545-.747-1.292,1.153-.9.95-.747-.149-1.206c-.032-.331-.053-.577-.053-.79s.021-.459.053-.779l.149-1.206-.95-.747-1.153-.9.747-1.292L8.124,9.3l1.11.448.961-.726a6.253,6.253,0,0,1,1.335-.779l1.132-.459.171-1.206.214-1.441h1.484l.2,1.441L14.9,7.783l1.132.459A6.058,6.058,0,0,1,17.349,9l.972.747,1.132-.459,1.356-.545.747,1.292-1.142.908-.95.747.149,1.206ZM13.794,9.406a4.271,4.271,0,1,0,4.271,4.271A4.27,4.27,0,0,0,13.794,9.406Zm0,6.406a2.135,2.135,0,1,1,2.135-2.135A2.142,2.142,0,0,1,13.794,15.812Z" transform="translate(-3.406 -3)"/></svg>